<svg xmlns="http://www.w3.org/2000/svg" viewBox="0 0 32 32"><g><path fill="#0065A9" d="M29.09 6.38l-5.82-3.36a2.18 2.18 0 0 0-2.36.09L3.7 17.13a1.09 1.09 0 0 0-.09 1.7l2.09 2.09a1.09 1.09 0 0 0 1.45.09l18.18-14.18a.27.27 0 0 1 .43.21v20.36a.27.27 0 0 1-.43.21l-5.45-4.24a1.09 1.09 0 0 0-1.36 0l-2.18 1.64a.55.55 0 0 0 0 .89l8.36 6.09a2.18 2.18 0 0 0 2.36.09l5.82-3.36A2.18 2.18 0 0 0 32 27.09V8.91a2.18 2.18 0 0 0-2.91-2.53z"/><path fill="#007ACC" d="M29.09 25.62l-5.82 3.36a2.18 2.18 0 0 1-2.36-.09l-8.36-6.09a.55.55 0 0 1 0-.89l2.18-1.64a1.09 1.09 0 0 1 1.36 0l5.45 4.24a.27.27 0 0 0 .43-.21V4.9a.27.27 0 0 0-.43-.21L6.15 18.87a1.09 1.09 0 0 1-1.45-.09l-2.09-2.09a1.09 1.09 0 0 1 .09-1.7L20.91 3.11a2.18 2.18 0 0 1 2.36-.09l5.82 3.36A2.18 2.18 0 0 1 32 8.91v18.18a2.18 2.18 0 0 1-2.91 2.53z"/></g></svg>
